Coordinates
version=1
nRows=18
nColumns=32
inDegrees=yes

Units are S.I. units (second, meters, Newtons, ...)
If the header above contains a line with 'inDegrees', this indicates whether rotational values are in degrees (yes) or radians (no).

endheader
time	pelvis_tilt	pelvis_list	pelvis_rotation	pelvis_tx	pelvis_ty	pelvis_tz	hip_flexion_r	hip_adduction_r	hip_rotation_r	knee_angle_r	knee_adduction_r	med_cond_adduction_r	lat_cond_adduction_r	patella_r_constrained_knee_angle	ankle_angle_r	subtalar_angle_r	mtp_angle_r	hip_flexion_l	hip_adduction_l	hip_rotation_l	knee_angle_l	knee_adduction_l	med_cond_adduction_l	lat_cond_adduction_l	patella_l_constrained_knee_angle	ankle_angle_l	subtalar_angle_l	mtp_angle_l	lumbar_extension	lumbar_bending	lumbar_rotation
      1.32500000	     -6.17192967	     -3.78753853	     -3.41680714	      0.15003437	      0.45182730	     -1.20148417	     95.73653718	    -45.77598875	      5.83236967	   -119.78589560	     -9.80967758	      0.00000000	      0.00000000	     -2.09065828	     28.92819821	     19.19058915	     -0.00000000	    107.41521091	    -48.90696130	     18.10867616	   -122.77866137	     -9.81853406	     -0.00000000	     -0.00000000	     -2.14289189	     28.54804697	     19.59222826	      0.00000000	    -32.01866220	      4.25325896	     -0.14936195
      1.33000000	     -6.06245094	     -3.87894212	     -3.47932638	      0.15011879	      0.45030753	     -1.20148545	     95.83496071	    -45.75786185	      5.90461281	   -120.01219398	     -9.81355202	     -0.00000000	     -0.00000000	     -2.09460793	     28.94627366	     19.18655221	      0.00000000	    107.75307769	    -48.90558324	     18.55641729	   -123.01937482	     -9.82270895	     -0.00000000	     -0.00000000	     -2.14709313	     28.57084049	     19.59110509	     -0.00000000	    -32.15937399	      4.39784316	      0.03290468
      1.33500000	     -5.92794902	     -3.88846828	     -3.51186219	      0.15018023	      0.44888464	     -1.20146424	     96.00629846	    -45.76059332	      6.11828536	   -120.23725255	     -9.81632957	      0.00000000	      0.00000000	     -2.09853594	     28.96138319	     19.18924396	     -0.00000000	    107.91707238	    -48.89620774	     18.83096372	   -123.24741269	     -9.82527113	      0.00000000	      0.00000000	     -2.15107315	     28.61132552	     19.59097117	      0.00000000	    -32.32419732	      4.39515517	      0.06661218
      1.34000000	     -5.79384170	     -4.00070627	     -3.53391465	      0.15028181	      0.44754882	     -1.20156039	     96.01178073	    -45.79529819	      6.13988454	   -120.43347918	     -9.81931737	     -0.00000000	     -0.00000000	     -2.10196074	     28.97996766	     19.19321228	     -0.00000000	    108.19716458	    -48.84892221	     19.26274688	   -123.46515393	     -9.82790783	     -0.00000000	     -0.00000000	     -2.15487345	     28.63971657	     19.59140572	     -0.00000000	    -32.50685241	      4.58579007	      0.23767052
      1.34500000	     -5.66304560	     -4.02805086	     -3.56174160	      0.15038191	      0.44614128	     -1.20157639	     96.17522448	    -45.82009877	      6.32315884	   -120.65832475	     -9.82199191	      0.00000000	      0.00000000	     -2.10588504	     28.99313106	     19.19525507	     -0.00000000	    108.39002986	    -48.83885104	     19.55447606	   -123.68594040	     -9.83003420	      0.00000000	      0.00000000	     -2.15872690	     28.66775869	     19.58983918	      0.00000000	    -32.65647633	      4.57343044	      0.21813506
      1.35000000	     -5.54764998	     -4.02817998	     -3.59723009	      0.15044161	      0.44478832	     -1.20153620	     96.35812512	    -45.80938881	      6.54031507	   -120.87081468	     -9.82476856	      0.00000000	      0.00000000	     -2.10959369	     29.00733294	     19.19795534	     -0.00000000	    108.54061166	    -48.83193152	     19.80073228	   -123.89315194	     -9.83260522	     -0.00000000	     -0.00000000	     -2.16234342	     28.70313073	     19.58954409	      0.00000000	    -32.78821685	      4.55079718	      0.23949456
      1.35500000	     -5.44255270	     -4.02021306	     -3.63446245	      0.15052100	      0.44339979	     -1.20148070	     96.57376030	    -45.79888603	      6.77151099	   -121.08709871	     -9.82747917	     -0.00000000	     -0.00000000	     -2.11336855	     29.01945478	     19.19955918	     -0.00000000	    108.70754817	    -48.83232410	     20.03312032	   -124.10061894	     -9.83502176	      0.00000000	      0.00000000	     -2.16596440	     28.73624409	     19.58894351	     -0.00000000	    -32.90615823	      4.53084506	      0.28423030
      1.36000000	     -5.31168010	     -3.72228770	     -3.66516574	      0.15051518	      0.44213437	     -1.20115672	     97.15067675	    -45.74108021	      7.48919481	   -121.32173539	     -9.82942742	      0.00000000	      0.00000000	     -2.11746374	     29.02128408	     19.20311903	     -0.00000000	    108.40858746	    -48.91487924	     19.75038528	   -124.27208672	     -9.83695337	      0.00000000	      0.00000000	     -2.16895708	     28.78601853	     19.58733886	     -0.00000000	    -33.02171580	      4.03727336	      0.02132888
      1.36500000	     -5.18559201	     -3.65862225	     -3.71629058	      0.15057922	      0.44094414	     -1.20099123	     97.38664421	    -45.70756949	      7.78279319	   -121.53621212	     -9.83133996	      0.00000000	     -0.00000000	     -2.12120706	     29.03055264	     19.20408133	     -0.00000000	    108.42490781	    -48.94992879	     19.87783574	   -124.44000979	     -9.83904349	     -0.00000000	     -0.00000000	     -2.17188789	     28.81181963	     19.58623576	      0.00000000	    -33.15612178	      3.90836986	      0.01591763
      1.37000000	     -5.07126732	     -4.01324579	     -3.71913790	      0.15075101	      0.43972838	     -1.20138877	     97.04667595	    -45.80164320	      7.38429807	   -121.67092808	     -9.83469270	      0.00000000	      0.00000000	     -2.12355830	     29.05632876	     19.20421799	     -0.00000000	    109.06375606	    -48.81934869	     20.70224435	   -124.67093320	     -9.84089681	     -0.00000000	     -0.00000000	     -2.17591827	     28.81501650	     19.58714288	     -0.00000000	    -33.31987351	      4.45041385	      0.29303424
      1.37500000	     -4.97205299	     -3.99173404	     -3.76478402	      0.15082012	      0.43850830	     -1.20128263	     97.24427442	    -45.76729031	      7.61128420	   -121.86781293	     -9.83681531	     -0.00000000	     -0.00000000	     -2.12699459	     29.06526300	     19.20535703	      0.00000000	    109.18905160	    -48.83434781	     20.90355370	   -124.85009798	     -9.84274512	     -0.00000000	     -0.00000000	     -2.17904528	     28.84356492	     19.58633304	     -0.00000000	    -33.42444586	      4.39789738	      0.31612526
      1.38000000	     -4.85104284	     -3.99763093	     -3.78511299	      0.15091751	      0.43739174	     -1.20127384	     97.37126725	    -45.77815930	      7.79150681	   -122.04115626	     -9.83881522	     -0.00000000	      0.00000000	     -2.13002000	     29.07581970	     19.20537943	      0.00000000	    109.30501270	    -48.83073953	     21.11522345	   -125.02764072	     -9.84468703	      0.00000000	      0.00000000	     -2.18214399	     28.85841316	     19.58565974	     -0.00000000	    -33.54929217	      4.38886917	      0.31197553
      1.38500000	     -4.74899228	     -3.61542420	     -3.80713841	      0.15092940	      0.43629009	     -1.20084001	     98.05933375	    -45.70678091	      8.61482389	   -122.26741646	     -9.84025089	      0.00000000	      0.00000000	     -2.13396899	     29.07118336	     19.21664424	     -0.00000000	    108.86609399	    -48.93276838	     20.64931779	   -125.15486093	     -9.84606603	      0.00000000	     -0.00000000	     -2.18436440	     28.90513119	     19.58439898	     -0.00000000	    -33.61209029	      3.74168110	     -0.05294319
      1.39000000	     -4.62003318	     -4.00068966	     -3.82490228	      0.15109069	      0.43531565	     -1.20121478	     97.61413251	    -45.78344386	      8.13354719	   -122.37846442	     -9.84301922	      0.00000000	     -0.00000000	     -2.13590714	     29.09898694	     19.20828589	     -0.00000000	    109.48455332	    -48.80959152	     21.50842391	   -125.34494956	     -9.84786735	     -0.00000000	      0.00000000	     -2.18768207	     28.90173544	     19.58586956	      0.00000000	    -33.79737456	      4.33625609	      0.28447780
      1.39500000	     -4.50845562	     -4.00805711	     -3.84745444	      0.15117627	      0.43432113	     -1.20118214	     97.71956903	    -45.78172389	      8.28728603	   -122.53972290	     -9.84485999	      0.00000000	      0.00000000	     -2.13872163	     29.10885172	     19.20890104	      0.00000000	    109.58124390	    -48.80282765	     21.71021144	   -125.49813250	     -9.84930886	     -0.00000000	     -0.00000000	     -2.19035562	     28.92054145	     19.58608938	     -0.00000000	    -33.91284202	      4.29054579	      0.22932357
      1.40000000	     -4.40508084	     -4.00244687	     -3.86775183	      0.15126142	      0.43336717	     -1.20113932	     97.83946115	    -45.77682912	      8.45647292	   -122.69493698	     -9.84662090	     -0.00000000	     -0.00000000	     -2.14143063	     29.11976893	     19.20813008	     -0.00000000	    109.66074487	    -48.79849987	     21.88070447	   -125.64257896	     -9.85082324	      0.00000000	      0.00000000	     -2.19287668	     28.93928008	     19.58558366	      0.00000000	    -34.02124935	      4.26367330	      0.22280882
      1.40500000	     -4.30222311	     -3.99791196	     -3.88899519	      0.15134270	      0.43245220	     -1.20109234	     97.95062090	    -45.76945209	      8.61844388	   -122.84358159	     -9.84821288	      0.00000000	      0.00000000	     -2.14402496	     29.12881538	     19.20789866	      0.00000000	    109.73434918	    -48.79647782	     22.04805972	   -125.78227905	     -9.85218363	     -0.00000000	     -0.00000000	     -2.19531491	     28.95627449	     19.58537914	     -0.00000000	    -34.12833592	      4.24087736	      0.22036781
      1.41000000	     -4.20381680	     -3.98576743	     -3.91799298	      0.15142351	      0.43158489	     -1.20101377	     98.06603740	    -45.74929198	      8.78256067	   -122.98530155	     -9.84967816	     -0.00000000	     -0.00000000	     -2.14649844	     29.13509062	     19.20587592	     -0.00000000	    109.79683866	    -48.80614796	     22.19959387	   -125.91339963	     -9.85363527	     -0.00000000	     -0.00000000	     -2.19760340	     28.97347848	     19.58535442	      0.00000000	    -34.23370866	      4.20839736	      0.23896242
